<mxfile host="app.diagrams.net" modified="2021-09-04T08:10:33.606Z" agent="5.0 (Windows NT 10.0; Win64; x64) AppleWebKit/537.36 (KHTML, like Gecko) Chrome/93.0.4577.63 Safari/537.36" etag="EG21sA0ykooohrtjfeIF" version="15.0.6" type="github">
  <diagram id="kgpKYQtTHZ0yAKxKKP6v" name="Page-1">
    <mxGraphModel dx="682" dy="521" grid="1" gridSize="10" guides="1" tooltips="1" connect="1" arrows="1" fold="1" page="1" pageScale="1" pageWidth="850" pageHeight="1100" math="0" shadow="0">
      <root>
        <mxCell id="0" />
        <mxCell id="1" parent="0" />
        <mxCell id="wirNJk3x5N79A3oDP3Wb-84" value="" style="edgeStyle=orthogonalEdgeStyle;rounded=0;orthogonalLoop=1;jettySize=auto;html=1;" edge="1" parent="1" source="wirNJk3x5N79A3oDP3Wb-12" target="wirNJk3x5N79A3oDP3Wb-83">
          <mxGeometry relative="1" as="geometry">
            <Array as="points">
              <mxPoint x="90" y="100" />
              <mxPoint x="90" y="100" />
            </Array>
          </mxGeometry>
        </mxCell>
        <mxCell id="wirNJk3x5N79A3oDP3Wb-86" value="" style="edgeStyle=orthogonalEdgeStyle;rounded=0;orthogonalLoop=1;jettySize=auto;html=1;" edge="1" parent="1" source="wirNJk3x5N79A3oDP3Wb-12" target="wirNJk3x5N79A3oDP3Wb-85">
          <mxGeometry relative="1" as="geometry">
            <Array as="points">
              <mxPoint x="240" y="150" />
              <mxPoint x="240" y="150" />
            </Array>
          </mxGeometry>
        </mxCell>
        <mxCell id="wirNJk3x5N79A3oDP3Wb-88" value="" style="edgeStyle=orthogonalEdgeStyle;rounded=0;orthogonalLoop=1;jettySize=auto;html=1;" edge="1" parent="1" source="wirNJk3x5N79A3oDP3Wb-12" target="wirNJk3x5N79A3oDP3Wb-87">
          <mxGeometry relative="1" as="geometry">
            <Array as="points">
              <mxPoint x="400" y="120" />
              <mxPoint x="400" y="120" />
            </Array>
          </mxGeometry>
        </mxCell>
        <mxCell id="wirNJk3x5N79A3oDP3Wb-12" value="ON-DEMAND SYSTEM DEVELOPMENT" style="shape=process;whiteSpace=wrap;align=center;verticalAlign=middle;size=0.0475;fontStyle=1;strokeWidth=3;fillColor=#FFCCCC" vertex="1" parent="1">
          <mxGeometry x="49.999999999999915" y="20" width="400" height="50" as="geometry" />
        </mxCell>
        <mxCell id="wirNJk3x5N79A3oDP3Wb-78" value="" style="edgeStyle=orthogonalEdgeStyle;rounded=0;orthogonalLoop=1;jettySize=auto;html=1;" edge="1" parent="1" source="wirNJk3x5N79A3oDP3Wb-68">
          <mxGeometry relative="1" as="geometry">
            <mxPoint x="388.5" y="741.0000000000002" as="targetPoint" />
          </mxGeometry>
        </mxCell>
        <mxCell id="wirNJk3x5N79A3oDP3Wb-90" value="" style="edgeStyle=orthogonalEdgeStyle;rounded=0;orthogonalLoop=1;jettySize=auto;html=1;" edge="1" parent="1" source="wirNJk3x5N79A3oDP3Wb-83" target="wirNJk3x5N79A3oDP3Wb-89">
          <mxGeometry relative="1" as="geometry" />
        </mxCell>
        <mxCell id="wirNJk3x5N79A3oDP3Wb-83" value="Mo-Te" style="ellipse;whiteSpace=wrap;html=1;fontStyle=1;strokeWidth=3;fillColor=#FFCCCC;" vertex="1" parent="1">
          <mxGeometry x="29.999999999999886" y="160" width="120" height="60" as="geometry" />
        </mxCell>
        <mxCell id="wirNJk3x5N79A3oDP3Wb-92" value="" style="edgeStyle=orthogonalEdgeStyle;rounded=0;orthogonalLoop=1;jettySize=auto;html=1;" edge="1" parent="1" source="wirNJk3x5N79A3oDP3Wb-85" target="wirNJk3x5N79A3oDP3Wb-91">
          <mxGeometry relative="1" as="geometry" />
        </mxCell>
        <mxCell id="wirNJk3x5N79A3oDP3Wb-85" value="W-Te" style="ellipse;whiteSpace=wrap;html=1;fontStyle=1;strokeWidth=3;fillColor=#FFCCCC;" vertex="1" parent="1">
          <mxGeometry x="169.9999999999999" y="160" width="120" height="60" as="geometry" />
        </mxCell>
        <mxCell id="wirNJk3x5N79A3oDP3Wb-94" value="" style="edgeStyle=orthogonalEdgeStyle;rounded=0;orthogonalLoop=1;jettySize=auto;html=1;" edge="1" parent="1" source="wirNJk3x5N79A3oDP3Wb-87" target="wirNJk3x5N79A3oDP3Wb-93">
          <mxGeometry relative="1" as="geometry" />
        </mxCell>
        <mxCell id="wirNJk3x5N79A3oDP3Wb-87" value="Mo-W" style="ellipse;whiteSpace=wrap;html=1;fontStyle=1;strokeWidth=3;fillColor=#FFCCCC;" vertex="1" parent="1">
          <mxGeometry x="319.9999999999999" y="160" width="120" height="60" as="geometry" />
        </mxCell>
        <mxCell id="wirNJk3x5N79A3oDP3Wb-89" value="" style="whiteSpace=wrap;html=1;fontStyle=1;strokeWidth=3;fillColor=#FFCCCC;" vertex="1" parent="1">
          <mxGeometry x="30" y="230" width="120" height="230" as="geometry" />
        </mxCell>
        <mxCell id="wirNJk3x5N79A3oDP3Wb-91" value="" style="whiteSpace=wrap;html=1;fontStyle=1;strokeWidth=3;fillColor=#FFCCCC;" vertex="1" parent="1">
          <mxGeometry x="170" y="230" width="120" height="230" as="geometry" />
        </mxCell>
        <mxCell id="wirNJk3x5N79A3oDP3Wb-93" value="" style="whiteSpace=wrap;html=1;fontStyle=1;strokeWidth=3;fillColor=#FFCCCC;" vertex="1" parent="1">
          <mxGeometry x="320" y="230" width="120" height="230" as="geometry" />
        </mxCell>
      </root>
    </mxGraphModel>
  </diagram>
</mxfile>
